{
    "asset" : {
        "generator" : "Khronos glTF Blender I/O v3.4.50",
        "version" : "2.0"
    },
    "scene" : 0,
    "scenes" : [
        {
            "name" : "Scene",
            "nodes" : [
                0,
                1,
                2,
                3
            ]
        }
    ],
    "nodes" : [
        {
            "mesh" : 0,
            "name" : "wine_barrel_01_Lid"
        },
        {
            "mesh" : 1,
            "name" : "wine_barrel_01_bung"
        },
        {
            "mesh" : 2,
            "name" : "wine_barrel_01"
        },
        {
            "mesh" : 3,
            "name" : "wine_barrel_01_base"
        }
    ],
    "materials" : [
        {
            "doubleSided" : true,
            "name" : "wine_barrel_01",
            "normalTexture" : {
                "index" : 0
            },
            "pbrMetallicRoughness" : {
                "baseColorTexture" : {
                    "index" : 1
                },
                "metallicRoughnessTexture" : {
                    "index" : 2
                }
            }
        }
    ],
    "meshes" : [
        {
            "name" : "DiameterSmall.012",
            "primitives" : [
                {
                    "attributes" : {
                        "POSITION" : 0,
                        "TEXCOORD_0" : 1,
                        "NORMAL" : 2
                    },
                    "indices" : 3,
                    "material" : 0
                }
            ]
        },
        {
            "name" : "Cylinder.014",
            "primitives" : [
                {
                    "attributes" : {
                        "POSITION" : 4,
                        "TEXCOORD_0" : 5,
                        "NORMAL" : 6
                    },
                    "indices" : 7,
                    "material" : 0
                }
            ]
        },
        {
            "name" : "Plane.006",
            "primitives" : [
                {
                    "attributes" : {
                        "POSITION" : 8,
                        "TEXCOORD_0" : 9,
                        "NORMAL" : 10
                    },
                    "indices" : 11,
                    "material" : 0
                }
            ]
        },
        {
            "name" : "DiameterSmall.004",
            "primitives" : [
                {
                    "attributes" : {
                        "POSITION" : 12,
                        "TEXCOORD_0" : 13,
                        "NORMAL" : 14
                    },
                    "indices" : 15,
                    "material" : 0
                }
            ]
        }
    ],
    "textures" : [
        {
            "sampler" : 0,
            "source" : 0
        },
        {
            "sampler" : 0,
            "source" : 1
        },
        {
            "sampler" : 0,
            "source" : 2
        }
    ],
    "images" : [
        {
            "mimeType" : "image/png",
            "name" : "wine_barrel_01_nor_gl",
            "uri" : "wine_barrel_01_nor_gl.png"
        },
        {
            "mimeType" : "image/jpeg",
            "name" : "wine_barrel_01_diff_4k",
            "uri" : "wine_barrel_01_diff_4k.jpg"
        },
        {
            "mimeType" : "image/png",
            "name" : "wine_barrel_01_metal-wine_barrel_01_rough",
            "uri" : "wine_barrel_01_metal-wine_barrel_01_rough.png"
        }
    ],
    "accessors" : [
        {
            "bufferView" : 0,
            "componentType" : 5126,
            "count" : 288,
            "max" : [
                0.28936314582824707,
                0.8373162150382996,
                0.2894185185432434
            ],
            "min" : [
                -0.2893601655960083,
                0.8220306038856506,
                -0.2894226908683777
            ],
            "type" : "VEC3"
        },
        {
            "bufferView" : 1,
            "componentType" : 5126,
            "count" : 288,
            "type" : "VEC2"
        },
        {
            "bufferView" : 2,
            "componentType" : 5126,
            "count" : 288,
            "type" : "VEC3"
        },
        {
            "bufferView" : 3,
            "componentType" : 5123,
            "count" : 672,
            "type" : "SCALAR"
        },
        {
            "bufferView" : 4,
            "componentType" : 5126,
            "count" : 113,
            "max" : [
                0.028619397431612015,
                0.46249890327453613,
                0.38508278131484985
            ],
            "min" : [
                -0.02382810413837433,
                0.41005033254623413,
                0.3429100811481476
            ],
            "type" : "VEC3"
        },
        {
            "bufferView" : 5,
            "componentType" : 5126,
            "count" : 113,
            "type" : "VEC2"
        },
        {
            "bufferView" : 6,
            "componentType" : 5126,
            "count" : 113,
            "type" : "VEC3"
        },
        {
            "bufferView" : 7,
            "componentType" : 5123,
            "count" : 504,
            "type" : "SCALAR"
        },
        {
            "bufferView" : 8,
            "componentType" : 5126,
            "count" : 9342,
            "max" : [
                0.3709522783756256,
                0.8719475269317627,
                0.37095266580581665
            ],
            "min" : [
                -0.37094923853874207,
                0.0006841719150543213,
                -0.37095293402671814
            ],
            "type" : "VEC3"
        },
        {
            "bufferView" : 9,
            "componentType" : 5126,
            "count" : 9342,
            "type" : "VEC2"
        },
        {
            "bufferView" : 10,
            "componentType" : 5126,
            "count" : 9342,
            "type" : "VEC3"
        },
        {
            "bufferView" : 11,
            "componentType" : 5123,
            "count" : 30612,
            "type" : "SCALAR"
        },
        {
            "bufferView" : 12,
            "componentType" : 5126,
            "count" : 288,
            "max" : [
                0.28936323523521423,
                0.050518572330474854,
                0.2894185185432434
            ],
            "min" : [
                -0.2893602252006531,
                0.03523290157318115,
                -0.28942275047302246
            ],
            "type" : "VEC3"
        },
        {
            "bufferView" : 13,
            "componentType" : 5126,
            "count" : 288,
            "type" : "VEC2"
        },
        {
            "bufferView" : 14,
            "componentType" : 5126,
            "count" : 288,
            "type" : "VEC3"
        },
        {
            "bufferView" : 15,
            "componentType" : 5123,
            "count" : 672,
            "type" : "SCALAR"
        }
    ],
    "bufferViews" : [
        {
            "buffer" : 0,
            "byteLength" : 3456,
            "byteOffset" : 0,
            "target" : 34962
        },
        {
            "buffer" : 0,
            "byteLength" : 2304,
            "byteOffset" : 3456,
            "target" : 34962
        },
        {
            "buffer" : 0,
            "byteLength" : 3456,
            "byteOffset" : 5760,
            "target" : 34962
        },
        {
            "buffer" : 0,
            "byteLength" : 1344,
            "byteOffset" : 9216,
            "target" : 34963
        },
        {
            "buffer" : 0,
            "byteLength" : 1356,
            "byteOffset" : 10560,
            "target" : 34962
        },
        {
            "buffer" : 0,
            "byteLength" : 904,
            "byteOffset" : 11916,
            "target" : 34962
        },
        {
            "buffer" : 0,
            "byteLength" : 1356,
            "byteOffset" : 12820,
            "target" : 34962
        },
        {
            "buffer" : 0,
            "byteLength" : 1008,
            "byteOffset" : 14176,
            "target" : 34963
        },
        {
            "buffer" : 0,
            "byteLength" : 112104,
            "byteOffset" : 15184,
            "target" : 34962
        },
        {
            "buffer" : 0,
            "byteLength" : 74736,
            "byteOffset" : 127288,
            "target" : 34962
        },
        {
            "buffer" : 0,
            "byteLength" : 112104,
            "byteOffset" : 202024,
            "target" : 34962
        },
        {
            "buffer" : 0,
            "byteLength" : 61224,
            "byteOffset" : 314128,
            "target" : 34963
        },
        {
            "buffer" : 0,
            "byteLength" : 3456,
            "byteOffset" : 375352,
            "target" : 34962
        },
        {
            "buffer" : 0,
            "byteLength" : 2304,
            "byteOffset" : 378808,
            "target" : 34962
        },
        {
            "buffer" : 0,
            "byteLength" : 3456,
            "byteOffset" : 381112,
            "target" : 34962
        },
        {
            "buffer" : 0,
            "byteLength" : 1344,
            "byteOffset" : 384568,
            "target" : 34963
        }
    ],
    "samplers" : [
        {
            "magFilter" : 9729,
            "minFilter" : 9987
        }
    ],
    "buffers" : [
        {
            "byteLength" : 385912,
            "uri" : "wine_barrel_01_4k.bin"
        }
    ]
}
